<svg width="31" height="30" viewBox="0 0 31 30" fill="none" xmlns="http://www.w3.org/2000/svg">
<path d="M15.5 12.5L10.5 5.5L12.5 2.5H18.5L20.5 5.5L15.5 12.5ZM19.875 8.5L18.375 10.625C21.125 11.75 23 14.375 23 17.5C23 19.4891 22.2098 21.3968 20.8033 22.8033C19.3968 24.2098 17.4891 25 15.5 25C13.5109 25 11.6032 24.2098 10.1967 22.8033C8.79018 21.3968 8 19.4891 8 17.5C8 14.375 9.875 11.75 12.625 10.625L11.125 8.5C7.75 10.125 5.5 13.5 5.5 17.5C5.5 20.1522 6.55357 22.6957 8.42893 24.5711C10.3043 26.4464 12.8478 27.5 15.5 27.5C18.1522 27.5 20.6957 26.4464 22.5711 24.5711C24.4464 22.6957 25.5 20.1522 25.5 17.5C25.5 13.5 23.25 10.125 19.875 8.5Z" fill="white"/>
</svg>
