<svg width="31" height="30" viewBox="0 0 31 30" fill="none" xmlns="http://www.w3.org/2000/svg">
<path d="M15.5 4.75C16.7125 4.75 17.867 4.93449 18.9355 5.26758C18.8329 5.25642 18.7293 5.25 18.625 5.25C17.9577 5.25 17.3144 5.48205 16.8027 5.90137L16.5918 6.0918C16.0526 6.63096 15.75 7.3625 15.75 8.125C15.75 8.7923 15.9821 9.43563 16.4014 9.94727L16.5918 10.1582C17.131 10.6974 17.8625 11 18.625 11C19.2923 11 19.9356 10.7679 20.4473 10.3486L20.6582 10.1582C21.1974 9.61904 21.5 8.8875 21.5 8.125C21.5 7.4577 21.2679 6.81437 20.8486 6.30273L20.6582 6.0918C20.5498 5.98337 20.4313 5.8876 20.3086 5.79883C23.5778 7.32846 25.75 10.3613 25.75 13.75C25.75 15.0554 25.2636 16.3104 24.3916 17.2734L24.2119 17.4619C23.2273 18.4465 21.8924 19 20.5 19H18.2871C17.6201 19.0001 16.9773 19.2323 16.4658 19.6514L16.2549 19.8418C15.7157 20.381 15.4121 21.1125 15.4121 21.875C15.4121 22.617 15.7046 23.2788 16.126 23.7734L16.1396 23.7891L16.1523 23.8037C16.2894 23.9523 16.375 24.15 16.375 24.375C16.375 24.5781 16.3044 24.774 16.1768 24.9297L16.1191 24.9941C15.955 25.1582 15.7321 25.25 15.5 25.25C12.9514 25.25 10.5004 24.3012 8.62012 22.5986L8.25195 22.248C6.32971 20.3258 5.25 17.7185 5.25 15L5.2627 14.4922C5.3799 12.1275 6.31222 9.87515 7.90137 8.12012L8.25195 7.75195C8.85432 7.14959 9.52394 6.62982 10.2432 6.2002C9.7673 6.7272 9.5 7.41149 9.5 8.125C9.5 8.7923 9.73205 9.43563 10.1514 9.94727L10.3418 10.1582C10.881 10.6974 11.6125 11 12.375 11C13.0423 11 13.6856 10.7679 14.1973 10.3486L14.4082 10.1582C14.9474 9.61904 15.25 8.8875 15.25 8.125C15.25 7.4577 15.0179 6.81437 14.5986 6.30273L14.4082 6.0918C13.869 5.55263 13.1375 5.25 12.375 5.25C12.3642 5.25 12.3535 5.25086 12.3428 5.25098C13.1951 4.97492 14.085 4.80766 14.9922 4.7627L15.5 4.75ZM8.625 10.25C7.9577 10.25 7.31437 10.4821 6.80273 10.9014L6.5918 11.0918C6.05263 11.631 5.75 12.3625 5.75 13.125C5.75 13.7923 5.98205 14.4356 6.40137 14.9473L6.5918 15.1582C7.13096 15.6974 7.8625 16 8.625 16C9.2923 16 9.93563 15.7679 10.4473 15.3486L10.6582 15.1582C11.1974 14.619 11.5 13.8875 11.5 13.125C11.5 12.4577 11.2679 11.8144 10.8486 11.3027L10.6582 11.0918C10.119 10.5526 9.3875 10.25 8.625 10.25ZM22.375 10.25C21.7077 10.25 21.0644 10.4821 20.5527 10.9014L20.3418 11.0918C19.8026 11.631 19.5 12.3625 19.5 13.125C19.5 13.7923 19.7321 14.4356 20.1514 14.9473L20.3418 15.1582C20.881 15.6974 21.6125 16 22.375 16C23.0423 16 23.6856 15.7679 24.1973 15.3486L24.4082 15.1582C24.9474 14.619 25.25 13.8875 25.25 13.125C25.25 12.4577 25.0179 11.8144 24.5986 11.3027L24.4082 11.0918C23.869 10.5526 23.1375 10.25 22.375 10.25Z" stroke="white" stroke-width="2"/>
</svg>
