<svg width="501" height="328" viewBox="0 0 501 328" fill="none" xmlns="http://www.w3.org/2000/svg">
<path d="M45.9175 138.359C37.4271 138.359 29.124 137.203 21.0081 134.889C12.8923 132.514 6.05623 129.106 0.5 124.667L7.89791 113.32C11.2067 115.946 14.89 118.165 18.9479 119.978C23.0683 121.791 27.4072 123.167 31.9645 124.105C36.5843 125.042 41.2977 125.511 46.1048 125.511C56.0936 125.511 64.1158 123.542 70.1714 119.603C76.2271 115.602 79.2549 109.756 79.2549 102.066C79.2549 96.5014 77.2572 91.7811 73.2617 87.9047C69.2662 84.0284 61.8371 80.496 50.9743 77.3074L35.9912 72.8996C24.3169 69.461 15.764 64.9907 10.3327 59.4888C4.90129 53.9869 2.1856 47.0158 2.1856 38.5755C2.1856 32.8235 3.30933 27.6968 5.5568 23.1952C7.80426 18.6312 10.957 14.7236 15.0149 11.4725C19.1352 8.22137 24.0047 5.75178 29.6234 4.06371C35.2421 2.31312 41.4226 1.43782 48.165 1.43782C56.2808 1.43782 63.8036 2.62572 70.7333 5.00153C77.663 7.37734 83.4689 10.5034 88.1512 14.3797L80.4723 25.2584C77.6006 22.8826 74.323 20.8819 70.6397 19.2564C67.0187 17.5683 63.1481 16.2866 59.0277 15.4113C54.9074 14.536 50.7246 14.0984 46.4794 14.0984C40.4237 14.0984 35.0548 15.0049 30.3726 16.8181C25.7528 18.6312 22.1319 21.2883 19.5098 24.7895C16.8878 28.2907 15.5767 32.6047 15.5767 37.7314C15.5767 41.2951 16.3883 44.4524 18.0115 47.2034C19.6971 49.8918 22.5689 52.3614 26.6268 54.6122C30.6847 56.8004 36.3346 58.9574 43.5764 61.0831L59.6833 65.866C70.983 69.1796 79.3174 73.6186 84.6863 79.183C90.0553 84.6849 92.7397 91.9061 92.7397 100.847C92.7397 108.287 90.9293 114.82 87.3084 120.447C83.7499 126.074 78.4746 130.482 71.4825 133.67C64.4903 136.796 55.9687 138.359 45.9175 138.359Z" fill="#8ED6FE"/>
<path d="M151.289 138.359C142.05 138.359 133.778 136.171 126.474 131.795C119.169 127.418 113.426 121.572 109.243 114.257C105.06 106.88 102.969 98.8147 102.969 90.0617C102.969 83.497 104.155 77.3074 106.527 71.4929C108.962 65.6784 112.365 60.5517 116.735 56.1127C121.105 51.6111 126.224 48.1099 132.092 45.6091C137.961 43.0457 144.36 41.764 151.289 41.764C160.591 41.764 168.863 43.9523 176.105 48.3288C183.409 52.7053 189.153 58.5823 193.336 65.9598C197.519 73.2748 199.61 81.3087 199.61 90.0617C199.61 96.5639 198.393 102.754 195.958 108.631C193.585 114.445 190.245 119.603 185.938 124.105C181.63 128.544 176.511 132.045 170.58 134.608C164.712 137.109 158.282 138.359 151.289 138.359ZM151.289 125.511C157.907 125.511 163.775 124.073 168.895 121.197C174.014 118.259 178.009 114.164 180.881 108.912C183.815 103.598 185.282 97.3142 185.282 90.0617C185.282 82.8092 183.815 76.5259 180.881 71.2115C178.009 65.8972 174.014 61.8021 168.895 58.9261C163.775 56.0501 157.907 54.6122 151.289 54.6122C144.672 54.6122 138.804 56.0501 133.684 58.9261C128.565 61.8021 124.538 65.8972 121.604 71.2115C118.732 76.5259 117.297 82.8092 117.297 90.0617C117.297 97.3142 118.764 103.598 121.698 108.912C124.632 114.164 128.627 118.259 133.684 121.197C138.804 124.073 144.672 125.511 151.289 125.511Z" fill="#8ED6FE"/>
<path d="M264.936 138.359C258.63 138.359 252.98 137.422 247.986 135.546C242.992 133.733 238.622 131.201 234.876 127.95C231.192 124.636 228.102 120.885 225.605 116.696L227.759 113.695V135.546H214.555V0.5H228.414V65.866L225.886 62.7712C229.881 56.6441 235.063 51.6111 241.431 47.6723C247.861 43.7335 255.665 41.764 264.842 41.764C273.957 41.764 281.948 43.9523 288.815 48.3288C295.745 52.7053 301.114 58.551 304.922 65.866C308.792 73.181 310.728 81.2462 310.728 90.0617C310.728 96.7515 309.604 103.035 307.357 108.912C305.172 114.726 302.05 119.853 297.992 124.292C293.934 128.669 289.096 132.107 283.477 134.608C277.921 137.109 271.741 138.359 264.936 138.359ZM262.407 125.511C269.025 125.511 274.862 124.073 279.919 121.197C285.038 118.259 289.065 114.164 291.999 108.912C294.933 103.598 296.4 97.3142 296.4 90.0617C296.4 82.8092 294.933 76.5259 291.999 71.2115C289.127 65.8972 285.132 61.8021 280.012 58.9261C274.893 56.0501 269.025 54.6122 262.407 54.6122C255.79 54.6122 249.921 56.0501 244.802 58.9261C239.683 61.8021 235.656 65.8972 232.722 71.2115C229.85 76.5259 228.414 82.8092 228.414 90.0617C228.414 97.3142 229.85 103.598 232.722 108.912C235.656 114.164 239.683 118.259 244.802 121.197C249.921 124.073 255.79 125.511 262.407 125.511Z" fill="#8ED6FE"/>
<path d="M325.765 135.546V44.5775H339.624V58.4572C343.557 52.1426 348.084 47.7973 353.203 45.4215C358.384 42.9832 363.91 41.764 369.778 41.764C371.464 41.764 373.149 41.8266 374.835 41.9516C376.583 42.0766 378.237 42.3267 379.798 42.7019L377.644 57.238C375.958 56.8004 374.273 56.4565 372.587 56.2065C370.964 55.9564 369.31 55.8313 367.624 55.8313C359.508 55.8313 352.797 58.3947 347.491 63.5214C342.246 68.6482 339.624 75.4005 339.624 83.7783V135.546H325.765Z" fill="#8ED6FE"/>
<path d="M429.599 138.359C420.047 138.359 411.619 136.359 404.315 132.357C397.011 128.356 391.299 122.76 387.178 115.57C383.058 108.318 380.998 99.9088 380.998 90.3431C380.998 83.4032 382.153 76.9635 384.463 71.024C386.835 65.0845 390.144 59.9265 394.389 55.55C398.696 51.1735 403.691 47.7973 409.372 45.4215C415.115 42.9832 421.358 41.764 428.101 41.764C435.28 41.764 441.679 43.0457 447.298 45.6091C452.917 48.1725 457.599 51.7362 461.345 56.3002C465.153 60.8643 467.868 66.2411 469.492 72.4307C471.177 78.5578 471.614 85.1851 470.803 92.3125H395.325C395.013 99.0648 396.262 104.973 399.071 110.037C401.88 115.039 406.001 118.947 411.432 121.76C416.863 124.573 423.325 125.98 430.816 125.98C435.748 125.98 440.618 125.136 445.425 123.448C450.295 121.76 454.509 119.353 458.067 116.227L464.809 127.012C461.75 129.513 458.223 131.638 454.228 133.389C450.295 135.077 446.205 136.327 441.96 137.14C437.777 137.953 433.657 138.359 429.599 138.359ZM395.981 80.7773H456.569C456.257 72.3369 453.666 65.7409 448.796 60.9893C443.989 56.2377 437.028 53.8619 427.914 53.8619C419.111 53.8619 411.807 56.2377 406.001 60.9893C400.257 65.7409 396.917 72.3369 395.981 80.7773Z" fill="#8ED6FE"/>
<path d="M5.36951 279.97V148.675H18.2924L92.5524 253.992V148.675H106.599V279.97H93.6762L19.4162 173.528V279.97H5.36951Z" fill="#34414A"/>
<path d="M172.689 282.784C163.449 282.784 155.177 280.595 147.873 276.219C140.569 271.842 134.825 265.997 130.642 258.682C126.46 251.304 124.368 243.239 124.368 234.486C124.368 227.921 125.554 221.731 127.927 215.917C130.361 210.103 133.764 204.976 138.134 200.537C142.504 196.035 147.623 192.534 153.492 190.033C159.36 187.47 165.759 186.188 172.689 186.188C181.991 186.188 190.263 188.376 197.504 192.753C204.809 197.129 210.552 203.006 214.735 210.384C218.918 217.699 221.009 225.733 221.009 234.486C221.009 240.988 219.792 247.178 217.357 253.055C214.985 258.869 211.645 264.027 207.337 268.529C203.029 272.968 197.91 276.469 191.979 279.032C186.111 281.533 179.681 282.784 172.689 282.784ZM172.689 269.935C179.306 269.935 185.175 268.497 190.294 265.621C195.413 262.683 199.409 258.588 202.28 253.336C205.214 248.022 206.682 241.738 206.682 234.486C206.682 227.233 205.214 220.95 202.28 215.636C199.409 210.321 195.413 206.226 190.294 203.35C185.175 200.474 179.306 199.036 172.689 199.036C166.071 199.036 160.203 200.474 155.083 203.35C149.964 206.226 145.938 210.321 143.003 215.636C140.132 220.95 138.696 227.233 138.696 234.486C138.696 241.738 140.163 248.022 143.097 253.336C146.031 258.588 150.027 262.683 155.083 265.621C160.203 268.497 166.071 269.935 172.689 269.935ZM165.103 170.245L182.334 138.453H196.755L178.12 170.245H165.103Z" fill="#34414A"/>
<path d="M264.141 282.784C257.274 282.784 250.719 281.689 244.476 279.501C238.233 277.313 233.114 274.468 229.118 270.967L235.58 259.901C239.325 263.339 243.727 266.028 248.783 267.966C253.84 269.842 258.991 270.779 264.235 270.779C271.102 270.779 276.471 269.466 280.342 266.841C284.275 264.215 286.241 260.557 286.241 255.868C286.241 251.429 284.587 248.115 281.278 245.927C277.969 243.739 271.851 241.519 262.924 239.269C252.061 236.643 244.195 233.267 239.325 229.14C234.518 225.014 232.115 219.293 232.115 211.978C232.115 206.851 233.519 202.287 236.329 198.286C239.201 194.222 243.134 191.034 248.128 188.72C253.185 186.407 258.991 185.25 265.546 185.25C271.976 185.25 277.969 186.188 283.526 188.064C289.144 189.939 294.045 192.659 298.228 196.223L292.141 207.477C290.018 205.351 287.521 203.538 284.649 202.037C281.778 200.474 278.687 199.286 275.379 198.474C272.132 197.598 268.792 197.161 265.359 197.161C259.428 197.161 254.589 198.442 250.844 201.006C247.098 203.507 245.225 206.976 245.225 211.415C245.225 215.98 247.067 219.356 250.75 221.544C254.496 223.732 260.458 225.795 268.636 227.734C279.561 230.297 287.427 233.673 292.234 237.862C297.104 241.988 299.539 247.709 299.539 255.024C299.539 260.651 298.072 265.528 295.137 269.654C292.203 273.78 288.083 277 282.776 279.314C277.47 281.627 271.258 282.784 264.141 282.784Z" fill="#34414A"/>
<path d="M499.903 205.53C496.564 182.417 475.901 160.786 451.645 162.94C439.182 164.029 426.513 171.775 422.3 183.958C423.212 173.72 419.177 163.249 412.597 155.337C397.43 137.031 372.291 133.165 352.571 146.785C339.861 155.4 330.967 170.038 330.494 185.582C330.048 198.353 335.025 210.563 341.42 221.294C346.451 229.863 352.341 237.482 357.486 245.852C364.806 257.86 370.903 271.577 367.957 286.018C377.091 269.839 370.599 249.905 362.973 234.434C354.696 217.5 340.619 197.537 346.696 178.109C350.369 166.362 359.923 156.489 371.552 152.55C381.616 149.034 392.858 151.138 401.908 156.629C407.749 160.155 412.833 164.991 416.579 170.763C419.129 174.7 421.091 179.129 422.3 183.958C430.494 172.097 446.297 167.46 459.534 171.747C476.276 177.422 487.296 195.527 486.509 212.973C486.008 221.653 482.541 228.717 477.326 235.575C461.911 256.333 438.812 269.976 416.769 282.97C406.43 289.056 395.981 295.115 386.101 302.062C376.257 309.056 366.508 317.13 360.079 327.5C368.974 319.322 379.267 313.609 389.82 308.378C425.061 291.372 465.263 277.479 489.25 244.385C490.126 243.172 491.511 241.143 492.323 239.891C498.849 229.877 501.879 217.38 499.903 205.53Z" fill="#476B81"/>
</svg>
