<svg width="31" height="30" viewBox="0 0 31 30" fill="none" xmlns="http://www.w3.org/2000/svg">
<path d="M21.125 4.28125C22.6737 4.28125 24.2433 5.28445 25.459 7.50879V7.50977C26.5365 9.48833 27.1562 12.1418 27.1562 15C27.1562 17.8578 26.5359 20.5145 25.46 22.4893C24.244 24.7141 22.6739 25.7188 21.125 25.7188C19.6723 25.7188 18.2022 24.8379 17.0225 22.8926L16.79 22.4893C16.6569 22.2443 16.5306 21.9903 16.4131 21.7275L15.5 19.6855L14.5869 21.7275C14.4694 21.9903 14.3431 22.2443 14.21 22.4893C12.994 24.7141 11.4239 25.7188 9.875 25.7188C8.42287 25.7188 6.95261 24.8353 5.77246 22.8916L5.54004 22.4893C4.46294 20.5109 3.84375 17.8543 3.84375 15C3.84375 12.1452 4.46352 9.48825 5.54102 7.50977L5.54004 7.50879C6.75577 5.28416 8.32624 4.28125 9.875 4.28125C11.3272 4.28125 12.7976 5.16349 13.9775 7.10742L14.21 7.51074C14.3431 7.75573 14.4694 8.00967 14.5869 8.27246L15.5 10.3145L16.4131 8.27246C16.5306 8.00967 16.6569 7.75574 16.79 7.51074C18.0059 5.28511 19.5759 4.28125 21.125 4.28125ZM9.875 5.09375C8.7265 5.09375 7.73284 5.82534 6.99121 6.7627C6.22934 7.72572 5.60281 9.05772 5.19238 10.627L4.77832 12.209L6.37598 11.8564C6.54504 11.8191 6.71694 11.7955 6.88965 11.7861L7.0625 11.7812C7.86284 11.7812 8.6322 12.0796 9.22266 12.6143L9.33887 12.7236C9.9425 13.3273 10.2812 14.1463 10.2812 15C10.2812 15.8003 9.98291 16.5697 9.44824 17.1602L9.33887 17.2764C8.73523 17.88 7.91617 18.2188 7.0625 18.2188C6.88946 18.2188 6.71645 18.2048 6.5459 18.1768L6.37598 18.1436L4.77832 17.791L5.19238 19.373C5.60281 20.9423 6.22934 22.2743 6.99121 23.2373C7.73284 24.1747 8.7265 24.9062 9.875 24.9062C10.6869 24.9062 11.4234 24.5352 12.0303 24.0078C12.64 23.4779 13.1771 22.7434 13.6211 21.8779C14.5104 20.1444 15.0938 17.7566 15.0938 15C15.0938 12.2434 14.5104 9.85565 13.6211 8.12207C13.1771 7.25661 12.64 6.5221 12.0303 5.99219C11.4234 5.46481 10.6869 5.09375 9.875 5.09375ZM21.125 5.09375C19.9765 5.09375 18.9828 5.82534 18.2412 6.7627C17.4793 7.72572 16.8528 9.05772 16.4424 10.627L16.0283 12.209L17.626 11.8564C17.795 11.8191 17.9669 11.7955 18.1396 11.7861L18.3125 11.7812C19.1128 11.7812 19.8822 12.0796 20.4727 12.6143L20.5889 12.7236C21.1925 13.3273 21.5312 14.1463 21.5312 15C21.5312 15.8003 21.2329 16.5697 20.6982 17.1602L20.5889 17.2764C19.9852 17.88 19.1662 18.2188 18.3125 18.2188C18.1395 18.2188 17.9664 18.2048 17.7959 18.1768L17.626 18.1436L16.0283 17.791L16.4424 19.373C16.8528 20.9423 17.4793 22.2743 18.2412 23.2373C18.9828 24.1747 19.9765 24.9062 21.125 24.9062C21.9369 24.9062 22.6734 24.5352 23.2803 24.0078C23.89 23.4779 24.4271 22.7434 24.8711 21.8779C25.7604 20.1444 26.3438 17.7566 26.3438 15C26.3438 12.2434 25.7604 9.85565 24.8711 8.12207C24.4271 7.25661 23.89 6.5221 23.2803 5.99219C22.6734 5.46481 21.9369 5.09375 21.125 5.09375ZM7.0625 12.5938C6.50399 12.5938 5.96533 12.7877 5.53711 13.1387L5.36133 13.2988C4.91007 13.7501 4.65625 14.3618 4.65625 15C4.65625 15.4759 4.79715 15.9412 5.06152 16.3369C5.29285 16.6831 5.60944 16.963 5.97949 17.1494L6.1416 17.2227C6.52638 17.382 6.94507 17.4393 7.35645 17.3887L7.53223 17.3604C7.99891 17.2675 8.4272 17.0376 8.76367 16.7012C9.05816 16.4067 9.27118 16.042 9.38184 15.6426L9.42285 15.4697C9.50408 15.0613 9.47748 14.6396 9.34766 14.2461L9.28516 14.0791C9.12583 13.6946 8.8704 13.3585 8.54395 13.1035L8.39941 12.999C8.00372 12.7346 7.53838 12.5938 7.0625 12.5938ZM18.3125 12.5938C17.754 12.5938 17.2153 12.7877 16.7871 13.1387L16.6113 13.2988C16.1601 13.7501 15.9062 14.3618 15.9062 15C15.9062 15.4165 16.0145 15.8248 16.2188 16.1855L16.3115 16.3369C16.5429 16.6831 16.8594 16.963 17.2295 17.1494L17.3916 17.2227C17.7764 17.382 18.1951 17.4393 18.6064 17.3887L18.7822 17.3604C19.1907 17.2791 19.5699 17.0929 19.8838 16.8223L20.0137 16.7012C20.3082 16.4067 20.5212 16.042 20.6318 15.6426L20.6729 15.4697C20.7541 15.0613 20.7275 14.6396 20.5977 14.2461L20.5352 14.0791C20.353 13.6395 20.0451 13.2634 19.6494 12.999C19.2537 12.7346 18.7884 12.5938 18.3125 12.5938Z" stroke="white" stroke-width="2"/>
</svg>
