<svg width="31" height="30" viewBox="0 0 31 30" fill="none" xmlns="http://www.w3.org/2000/svg">
<path d="M15.4414 6H15.4482C16.4848 5.99301 17.4476 6.38004 18.2012 7.10449L18.3486 7.25391L18.3555 7.26074C19.1307 8.06675 19.6308 9.26787 19.6309 10.6172C19.6309 11.9872 19.1035 13.174 18.2783 14.0156L17.541 14.7529L16.1426 16.1504L18.0967 16.4482L19.2246 16.6201V16.6211C20.7419 16.8676 21.7339 17.2532 22.415 17.7266C22.9944 18.1292 23.3986 18.6288 23.707 19.2705L23.833 19.5547L23.835 19.5596C24.1329 20.268 24.3041 21.1662 24.3955 22.2725C24.4641 23.1029 24.4854 24.011 24.4941 25H6.51562C6.56388 22.8748 6.71188 21.2152 7.20605 19.9766L7.32617 19.6992L7.33008 19.6904C7.67776 18.9285 8.13578 18.3352 8.80469 17.8643C9.40141 17.4441 10.209 17.0913 11.3418 16.834L11.8477 16.7295L11.8525 16.7285L12.9727 16.5127L14.9307 16.1357L13.458 14.792L12.6973 14.0977C11.8125 13.2489 11.2403 12.0322 11.2402 10.627C11.2402 9.35893 11.677 8.21939 12.3701 7.41504L12.5117 7.25879L12.6621 7.1084C13.3693 6.43533 14.2585 6.05289 15.2314 6.00488L15.4414 6Z" stroke="white" stroke-width="2"/>
</svg>
