<svg width="31" height="30" viewBox="0 0 31 30" fill="none" xmlns="http://www.w3.org/2000/svg">
<path d="M15.5 2.5C8.6075 2.5 3 8.1075 3 15C3 21.8925 8.6075 27.5 15.5 27.5C22.3925 27.5 28 21.8925 28 15C28 8.1075 22.3925 2.5 15.5 2.5ZM15.5 25C9.98625 25 5.5 20.5138 5.5 15C5.5 9.48625 9.98625 5 15.5 5C21.0138 5 25.5 9.48625 25.5 15C25.5 20.5138 21.0138 25 15.5 25Z" fill="white"/>
<path d="M19.035 18.535C18.3445 19.2261 17.4667 19.6998 16.51 19.8975C15.8434 20.0315 15.1567 20.0315 14.49 19.8975C14.1692 19.8317 13.8556 19.7346 13.5538 19.6075C13.2567 19.4819 12.9724 19.3278 12.705 19.1475C12.1733 18.7855 11.7145 18.3267 11.3525 17.795L9.28003 19.1912C9.54878 19.59 9.85753 19.965 10.1963 20.3025C10.8917 21.0005 11.7181 21.5545 12.628 21.9325C13.5379 22.3105 14.5135 22.5052 15.4989 22.5055C16.4842 22.5057 17.4599 22.3114 18.37 21.9338C19.2801 21.5562 20.1068 21.0027 20.8025 20.305C21.1425 19.9662 21.4525 19.5912 21.72 19.1912L19.6475 17.795C19.4684 18.06 19.2642 18.3067 19.035 18.535Z" fill="white"/>
<path d="M11.125 15C12.1605 15 13 14.1605 13 13.125C13 12.0895 12.1605 11.25 11.125 11.25C10.0895 11.25 9.25 12.0895 9.25 13.125C9.25 14.1605 10.0895 15 11.125 15Z" fill="white"/>
<path d="M19.875 12.5C17.375 12.5 16.75 15 16.75 15H23C23 15 22.3737 12.5 19.875 12.5Z" fill="white"/>
</svg>
